<svg id="Layer_1" data-name="Layer 1" xmlns="http://www.w3.org/2000/svg" viewBox="0 0 389 473.11">
	<path d="M375,56.93c27.87.34,55.1,4.56,81.44,13.84,15.49,5.46,29,14.29,41.36,25,10.88,9.44,21,19.58,28.49,32,8.78,14.55,15.48,29.93,19,46.6,2.43,11.51,3.13,23.21,3.45,34.94.07,2.62,0,5.25,0,7.88,0,1.57-.43,2.36-2.28,2.24-7.33-.45-14.66-.79-22-1.11-8.42-.36-16.86-.65-25.28-1-13.36-.55-26.7-1.2-40.06-1.65-8.54-.29-17.09-.23-25.64-.42-36.16-.79-72.32-.48-108.48-.22-10.52.07-21,.21-31.56.54-17.07.55-34.15,1.3-51.22,2-9.41.38-18.82.82-28.23,1.26-3.5.16-7,.35-10.5.59-1.35.09-2-.29-2-1.78-1.35-36.39,6.89-70,29-99.51,8.27-11,18.62-20,29.39-28.55,15.57-12.29,33.3-20,52.47-24.61a305.25,305.25,0,0,1,35.46-6.49A182,182,0,0,1,375,56.93ZM348.7,529.16q-1.24-28.08-2.52-56.16c-.95-20.36-2-40.72-2.95-61.08-.6-12.7-1.08-25.4-1.67-38.1-.73-15.65-1.55-31.3-2.29-47-.61-12.81-1.12-25.62-1.79-38.42-.1-2,.74-4.83-.76-5.94s-4.16-.83-6.32-1c-12.68-.82-25.32-2-37.95-3.29a300.26,300.26,0,0,1-43-7.41c-11.67-2.91-23.26-6.11-34.82-9.42-1.69-.48-2.59-1.12-2.46-3.11.2-3.06,0-6.14.06-9.21,0-2.57,0-2.62,2.46-2.68,4.82-.13,9.64-.39,14.46-.52,21.36-.59,42.73-1,64.1-1.5,5-.11,10.08-.17,15.12-.33,17.09-.53,34.19-.28,51.29-.74,25-.67,50,.39,75,.63,24.65.24,49.3,1.11,74,1.72q13.3.33,26.62.73c2.45.08,2.48.11,2.5,2.63,0,3.18-.06,6.36,0,9.54.05,1.57-.49,2.28-2.06,2.7-5.7,1.52-11.36,3.22-17,4.84a366.35,366.35,0,0,1-70.18,13.17c-11.13.94-22.26,1.85-33.4,2.63-1.85.13-2.41.72-2.45,2.49-.13,4.82-.4,9.63-.63,14.45-.81,16.85-1.67,33.71-2.45,50.57-.77,16.42-1.44,32.84-2.21,49.26s-1.62,33.06-2.39,49.59-1.48,33.28-2.23,49.92c-.44,9.86-.93,19.71-1.36,29.56-.1,2.42.07,2.54,2.32,1.86,4.09-1.23,8.15-2.53,12.23-3.75a2.63,2.63,0,0,0,2.21-2.7c.75-12.58,1.68-25.15,2.43-37.73a294.44,294.44,0,0,1,3.57-33q5-28.81,12.44-57.09c3.57-13.44,7.34-26.82,12.88-39.63,4.71-10.89,10.94-20.75,20-28.55a139.51,139.51,0,0,1,32.46-21,245.48,245.48,0,0,1,42.12-14.52c3-.77,3-.79,3.09-3.53q.57-29.59,1.12-59.18c.06-3.15,0-3.2-3.25-3.36-5.26-.26-10.51-.35-15.77-.61-16.42-.79-32.84-1.42-49.27-2-13.47-.49-26.94-1.07-40.42-1.2-25.75-.25-51.5-.71-77.26-.47-29.92.27-59.85.28-89.75,1.6-8.54.37-17.07.82-25.61,1.15-8.87.35-17.75.45-26.61,1-5.26.3-10.52.31-15.77.63-2.89.17-2.94.22-2.89,3,.11,7,.29,14,.43,21q.36,18.9.7,37.81c.07,3.35.09,3.32,3.16,4.17,4.84,1.34,9.71,2.63,14.51,4.1,17.88,5.48,34.95,12.65,50.26,23.67,9,6.47,17,13.73,23,23.2A122.12,122.12,0,0,1,305.57,369c6.57,19.65,11.48,39.75,15.76,60,3.64,17.26,6.8,34.6,7.84,52.26C330,495.1,331,509,331.82,522.87c.1,1.69.65,2.54,2.24,3,4.2,1.23,8.36,2.57,12.54,3.86a2.11,2.11,0,0,0,1.88,0A1.62,1.62,0,0,0,348.7,529.16Zm-27.57-9.48c-.35-4.48-.75-8.95-1.06-13.43-1.19-17.37-2.62-34.72-5.32-51.94-2.28-14.49-4.78-28.93-9.12-43-2.82-9.13-5.91-18.1-11.16-26.19-4.24-6.55-9.48-12.07-16.41-15.75s-14-3.94-20.9.32a42,42,0,0,0-7.72,6.09A60.82,60.82,0,0,0,237.33,394a297.2,297.2,0,0,0-11.45,29.69c-6.47,19.35-10,39.43-15,59.16-.57,2.24-.46,2.3,2,3.11q14.15,4.71,28.32,9.39,38,12.56,76,25.08c1.2.39,2.36,1.2,3.72.83A2.05,2.05,0,0,0,321.13,519.68Zm111.64.8c13-4.25,26-8.57,38.92-12.86l65.07-21.52c2.89-1,2.9-1,2.18-4-1.5-6.39-3-12.78-4.53-19.17-3.72-16-7.35-32-13.12-47.43-3.68-9.85-7.25-19.74-12.52-28.89a46.47,46.47,0,0,0-16.12-17c-6.81-4.14-13.75-3.9-20.61-.27a40.94,40.94,0,0,0-13.19,11.2A76.58,76.58,0,0,0,447,403.09a269.32,269.32,0,0,0-11.18,47.55c-1.49,10-3,19.93-3.88,30-.93,10.47-1.71,21-2.53,31.44-.23,3-.36,6.08-.54,9.21C430.41,521.63,431.59,520.87,432.77,520.48Zm-240.44-285c-3.57,7.64-7.08,15.3-10.72,22.91a11.3,11.3,0,0,0-1.1,5.36q.65,30.07,1.22,60.15.5,25.32,1,50.62.6,30.07,1.22,60.15c.24,11.61.54,23.23.67,34.84a4.18,4.18,0,0,0,2.74,4.25c3.84,1.87,7.56,4,11.36,5.92.83.43,1.59,1.22,3,.88Q198,356.79,194.34,232.52A5.71,5.71,0,0,0,192.33,235.52Zm371,237.9a3.24,3.24,0,0,0,2-3.31c.39-20.48.86-41,1.27-61.45q.78-39.6,1.51-79.2.64-32.86,1.36-65.72a10.15,10.15,0,0,0-.85-4.79c-3.88-8.21-7.71-16.45-11.58-24.66-.28-.59-.25-1.59-1.42-1.43-2.46,82.59-4.91,165.15-7.39,248.45C553.71,478.45,558.51,475.86,563.37,473.42Z" transform="translate(-180.5 -56.87)" />
</svg>